HIERARCHY
ROOT Hips
{
	OFFSET 0.00000 0.00000 0.00000
	CHANNELS 6 Xposition Yposition Zposition Zrotation Yrotation Xrotation 
	JOINT RightUpLegDummy
	{
		OFFSET 0 0 0
		CHANNELS 3 Zrotation Yrotation Xrotation
		JOINT RightUpLeg
		{
			OFFSET -3.52197 -3.41223 0.04002
			CHANNELS 3 Zrotation Yrotation Xrotation
			JOINT RightLeg
			{
				OFFSET 0.00006 -17.42390 1.60435
				CHANNELS 3 Zrotation Yrotation Xrotation
				JOINT RightFoot
				{
					OFFSET 0.06153 -16.50078 -1.63901
					CHANNELS 3 Zrotation Yrotation Xrotation
					JOINT RightToes
					{
						OFFSET 0.00298 -1.73825 3.34613
						CHANNELS 3 Zrotation Yrotation Xrotation
						End Site
						{
							OFFSET 0.00480 -0.05416 3.85043
						}
					}
				}
			}
		}
	}
	JOINT SpineDummy
	{
		OFFSET 0 0 0
		CHANNELS 3 Zrotation Yrotation Xrotation
		JOINT Spine
		{
			OFFSET 0.00000 4.68130 0.00000
			CHANNELS 3 Zrotation Yrotation Xrotation
			JOINT Spine1
			{
				OFFSET -0.00000 10.10138 0.05002
				CHANNELS 3 Zrotation Yrotation Xrotation
				JOINT HEadDummy
				{
					OFFSET 0 0 0
					CHANNELS 3 Zrotation Yrotation Xrotation
					JOINT Head
					{
						OFFSET -0.00000 3.43865 0.00438
						CHANNELS 3 Zrotation Yrotation Xrotation
						End Site
						{
							OFFSET -0.11417 5.02924 0.98962
						}
					}
				}
				JOINT LeftShoulder1Dummy
				{
					OFFSET 0 0 0
					CHANNELS 3 Zrotation Yrotation Xrotation
					JOINT LeftShoulder1
					{
						OFFSET 3.53937 -0.14262 -0.08662
						CHANNELS 3 Zrotation Yrotation Xrotation
						JOINT LeftArm
						{
							OFFSET 4.04833 -0.00133 0.12681
							CHANNELS 3 Zrotation Yrotation Xrotation
							JOINT LeftForeArm
							{
								OFFSET 10.33880 -0.01036 -0.55515
								CHANNELS 3 Zrotation Yrotation Xrotation
								JOINT LeftHand
								{
									OFFSET 8.69677 0.07543 0.40060
									CHANNELS 3 Zrotation Yrotation Xrotation
									End Site
									{
										OFFSET 5.28377 -0.21905 0.59205
									}
								}
							}
						}
					}
				}
				JOINT RightShoulderDummy
				{
					OFFSET 0 0 0
					CHANNELS 3 Zrotation Yrotation Xrotation
					JOINT RightShoulder
					{
						OFFSET -3.53937 -0.14262 -0.08660
						CHANNELS 3 Zrotation Yrotation Xrotation
						JOINT RightArm
						{
							OFFSET -4.04833 -0.00133 0.12683
							CHANNELS 3 Zrotation Yrotation Xrotation
							JOINT RightForeArm
							{
								OFFSET -10.37987 -0.01039 -0.55511
								CHANNELS 3 Zrotation Yrotation Xrotation
								JOINT RightHand
								{
									OFFSET -8.67398 0.07538 0.40058
									CHANNELS 3 Zrotation Yrotation Xrotation
									End Site
									{
										OFFSET -5.24810 -0.21916 0.59204
									}
								}
							}
						}
					}
				}
			}
		}
	}
	JOINT LeftUpLegDummy
	{
		OFFSET 0 0 0
		CHANNELS 3 Zrotation Yrotation Xrotation
		JOINT LeftUpLeg
		{
			OFFSET 3.52197 -3.41223 0.04002
			CHANNELS 3 Zrotation Yrotation Xrotation
			JOINT LeftLeg
			{
				OFFSET -0.00012 -17.42399 1.60337
				CHANNELS 3 Zrotation Yrotation Xrotation
				JOINT LeftFoot
				{
					OFFSET -0.09972 -16.50070 -1.63802
					CHANNELS 3 Zrotation Yrotation Xrotation
					JOINT LeftToes
					{
						OFFSET -0.01575 -1.73823 3.34611
						CHANNELS 3 Zrotation Yrotation Xrotation
						End Site
						{
							OFFSET 0.03150 -0.01868 3.85031
						}
					}
				}
			}
		}
	}
}
MOTION
Frames: 9
Frame Time: 0.033333
0.0865 38.2320 35.0903 1.5758 -4.2223 -6.6742 0.0000 0.0000 0.0000 -5.0434 -5.1276 -3.2406 0.1712 0.2506 58.6061 13.6221 -2.9115 13.0147 0.0000 -0.0000 0.0000 0.0000 0.0000 0.0000 -2.4878 1.2739 12.3163 2.3459 0.8988 -2.9866 -0.0000 0.0000 -0.0000 1.4636 2.8230 -10.9732 -0.0000 0.0000 -0.0000 -34.6710 -2.7407 2.5421 -42.6535 -14.7214 -19.2587 -9.6452 5.0923 49.6394 12.2154 -3.6637 -0.9232 -0.0000 0.0000 -0.0000 35.0001 5.2287 3.5824 39.1968 3.6826 -19.3408 9.8945 -1.7041 22.7265 -11.0153 1.9773 -0.6827 0.0000 0.0000 0.0000 -5.3686 0.4124 -12.1624 0.5819 7.8257 22.3341 -0.4323 0.0508 -7.2365 0.0000 0.0000 -0.0000
0.1310 38.3428 36.2654 0.8385 -3.5234 -7.1478 0.0000 0.0000 0.0000 -3.7933 -4.1156 -6.9568 -3.1070 -1.1553 61.4248 10.4052 -1.9227 9.9147 0.0000 -0.0000 0.0000 0.0000 0.0000 0.0000 -2.2276 0.5659 12.8669 3.0167 0.0484 -2.8041 -0.0000 0.0000 -0.0000 0.9191 3.4977 -11.6446 -0.0000 0.0000 -0.0000 -34.6193 -2.7623 2.5476 -42.6355 -16.1408 -18.4429 -9.9886 5.1041 49.1093 13.0256 -3.7983 -1.0008 -0.0000 0.0000 -0.0000 35.0061 5.2332 3.5842 39.0995 3.9771 -18.4184 10.2178 -1.0277 22.9916 -11.3280 2.1993 -0.7227 0.0000 0.0000 0.0000 -4.9931 0.7525 -9.7990 0.4583 6.8739 22.8373 -0.6706 0.0686 -9.1195 0.0000 0.0000 -0.0000
0.1463 38.4421 37.4486 0.0751 -2.4904 -7.4773 0.0000 0.0000 0.0000 -2.5403 -3.2569 -10.2028 -6.3855 -2.5533 61.4082 7.3758 -1.1642 7.0229 0.0000 -0.0000 0.0000 0.0000 0.0000 0.0000 -2.2330 -0.1415 13.1986 3.9919 -0.8638 -2.7386 -0.0000 0.0000 -0.0000 0.6275 3.9335 -11.6161 -0.0000 0.0000 -0.0000 -34.2595 -2.7782 2.5311 -42.9463 -17.7554 -17.6342 -10.2529 5.1171 48.5575 13.5745 -3.7548 -1.0400 -0.0000 0.0000 -0.0000 34.9895 5.2347 3.5872 39.1357 3.9789 -17.8246 10.3780 0.1339 22.8654 -11.7019 2.3793 -0.7641 0.0000 0.0000 0.0000 -4.4865 1.1161 -7.5620 0.0517 5.5204 23.2782 -0.5355 0.0676 -10.8255 0.0000 0.0000 -0.0000
0.1513 38.5166 38.6381 -0.6317 -1.8348 -7.7934 0.0000 0.0000 0.0000 -1.3581 -1.9521 -12.9142 -8.8477 -4.0546 59.0214 4.7530 -0.6639 4.9687 0.0000 -0.0000 0.0000 0.0000 0.0000 0.0000 -2.1423 -0.5922 13.4251 4.8051 -1.4890 -2.6938 -0.0000 0.0000 -0.0000 0.6214 4.1998 -11.1271 -0.0000 0.0000 -0.0000 -33.8727 -2.7796 2.5067 -43.2160 -19.3744 -16.7099 -10.5865 5.1345 47.8182 13.4574 -3.6471 -1.0190 -0.0000 0.0000 -0.0000 35.0062 5.2349 3.5906 39.2341 3.8624 -17.5839 10.4121 1.4463 22.1605 -11.8562 2.4565 -0.7818 0.0000 0.0000 0.0000 -3.8031 1.6303 -5.2842 -0.4692 4.3205 23.5528 -0.3071 0.0718 -12.5306 0.0000 0.0000 -0.0000
0.1540 38.6152 39.8518 -1.2279 -1.5920 -8.0081 0.0000 0.0000 0.0000 -0.3335 -0.4856 -15.0479 -10.0911 -5.7157 54.3330 2.5579 -0.3036 2.6730 0.0000 -0.0000 0.0000 0.0000 0.0000 0.0000 -1.8817 -0.8424 13.3853 5.3000 -1.8521 -2.5810 -0.0000 0.0000 -0.0000 0.7702 4.3883 -10.5176 -0.0000 0.0000 -0.0000 -33.7083 -2.7827 2.4965 -43.1790 -20.6954 -15.6591 -11.0607 5.1550 46.8872 13.1137 -3.6699 -0.9943 -0.0000 0.0000 -0.0000 35.0646 5.2344 3.5926 39.3173 3.8599 -17.4255 10.4391 2.4313 21.4312 -11.8191 2.4669 -0.7803 0.0000 0.0000 0.0000 -3.0514 2.1941 -2.6541 -0.9852 3.4816 22.9679 -0.1451 0.0806 -13.9978 0.0000 0.0000 -0.0000
0.1553 38.7250 41.0683 -1.6436 -1.4110 -7.9914 0.0000 0.0000 0.0000 0.3497 0.4800 -16.5421 -10.0105 -7.4788 47.1844 1.6704 -0.1738 0.9059 0.0000 -0.0000 0.0000 0.0000 0.0000 0.0000 -1.6275 -1.0510 13.0368 5.5693 -2.1320 -2.4449 -0.0000 0.0000 -0.0000 0.9172 4.4444 -10.0268 -0.0000 0.0000 -0.0000 -33.7101 -2.7849 2.4979 -42.9664 -21.6380 -14.6214 -11.5735 5.1762 45.8890 13.2133 -3.8626 -1.0229 -0.0000 0.0000 -0.0000 35.1057 5.2339 3.5911 39.4240 4.0146 -17.1858 10.5093 2.8826 21.1357 -11.8698 2.6093 -0.7973 0.0000 0.0000 0.0000 -2.5340 2.5422 0.0627 -1.2646 2.9582 21.7146 0.1796 0.0963 -15.0676 0.0000 0.0000 -0.0000
0.1590 38.8046 42.2746 -1.8485 -1.3339 -7.7575 0.0000 0.0000 0.0000 0.7617 0.7555 -17.1898 -8.8063 -9.2050 37.6834 2.2173 -0.2334 0.7828 0.0000 -0.0000 0.0000 0.0000 0.0000 0.0000 -1.4108 -1.1930 12.4469 5.6379 -2.3074 -2.2406 -0.0000 0.0000 -0.0000 0.9949 4.3309 -9.8087 -0.0000 0.0000 -0.0000 -33.6991 -2.7823 2.4951 -42.8448 -22.2734 -13.7200 -12.0080 5.2007 44.7738 13.6889 -4.0899 -1.0862 -0.0000 0.0000 -0.0000 35.0830 5.2340 3.5883 39.6023 4.2744 -16.9473 10.5799 2.9401 21.2235 -12.0582 2.9571 -0.8439 0.0000 0.0000 0.0000 -2.3908 2.6244 2.5913 -1.1779 2.8625 20.2759 0.5648 0.1179 -15.9176 0.0000 0.0000 -0.0000
0.1573 38.8972 43.4653 -1.8455 -1.5511 -7.3919 0.0000 0.0000 0.0000 1.1850 0.5331 -16.8611 -6.7303 -10.5777 26.1876 3.2490 -0.3555 1.3090 0.0000 -0.0000 0.0000 0.0000 0.0000 0.0000 -1.2488 -1.1908 11.7087 5.5614 -2.3083 -1.9127 -0.0000 0.0000 -0.0000 1.0194 4.1839 -9.8556 -0.0000 0.0000 -0.0000 -33.6407 -2.7730 2.4905 -42.8679 -22.5631 -12.9545 -12.3784 5.2335 43.3303 13.9769 -4.2353 -1.1265 -0.0000 0.0000 -0.0000 35.0443 5.2349 3.5889 39.7813 4.5670 -16.7888 10.6140 2.8749 21.4337 -12.1069 3.1903 -0.8700 0.0000 0.0000 0.0000 -2.4890 2.6215 5.2961 -0.9794 3.1946 18.0372 0.6931 0.1280 -16.3187 0.0000 0.0000 -0.0000
0.1250 39.0508 44.6084 -1.6141 -1.8015 -6.9655 0.0000 0.0000 0.0000 1.5820 0.0291 -15.7066 -3.8887 -10.9615 13.3935 4.3488 -0.4702 1.0936 0.0000 -0.0000 0.0000 0.0000 0.0000 0.0000 -1.4223 -1.1365 10.9765 5.6133 -2.2821 -1.5811 -0.0000 0.0000 -0.0000 0.9821 4.1577 -9.9866 -0.0000 0.0000 -0.0000 -33.6380 -2.7631 2.4857 -42.8955 -22.4810 -12.3218 -12.7280 5.2687 41.7444 13.9507 -4.3275 -1.1347 -0.0000 0.0000 -0.0000 35.0926 5.2461 3.5977 39.8233 4.7760 -16.6502 10.6431 2.8372 21.5655 -11.9109 3.0097 -0.8383 0.0000 0.0000 0.0000 -2.6786 2.6756 8.4277 -1.0756 3.5402 14.5157 0.8200 0.1258 -15.7642 0.0000 0.0000 -0.0000
